<mxfile host="Electron" modified="2023-12-13T20:10:47.905Z" agent="Mozilla/5.0 (Windows NT 10.0; Win64; x64) AppleWebKit/537.36 (KHTML, like Gecko) draw.io/22.1.2 Chrome/114.0.5735.289 Electron/25.9.4 Safari/537.36" etag="lnCUbW7VMB3SXEPSzaHY" version="22.1.2" type="device">
  <diagram id="C5RBs43oDa-KdzZeNtuy" name="Page-1">
    <mxGraphModel dx="1434" dy="836" grid="1" gridSize="10" guides="1" tooltips="1" connect="1" arrows="1" fold="1" page="1" pageScale="1" pageWidth="827" pageHeight="1169" math="0" shadow="0">
      <root>
        <mxCell id="WIyWlLk6GJQsqaUBKTNV-0" />
        <mxCell id="WIyWlLk6GJQsqaUBKTNV-1" parent="WIyWlLk6GJQsqaUBKTNV-0" />
        <mxCell id="jKAB0NGE-xANimlFs14p-23" style="edgeStyle=orthogonalEdgeStyle;rounded=0;orthogonalLoop=1;jettySize=auto;html=1;" edge="1" parent="WIyWlLk6GJQsqaUBKTNV-1" source="jKAB0NGE-xANimlFs14p-0" target="jKAB0NGE-xANimlFs14p-1">
          <mxGeometry relative="1" as="geometry" />
        </mxCell>
        <mxCell id="jKAB0NGE-xANimlFs14p-0" value="&lt;b&gt;Starn&lt;/b&gt;" style="rounded=1;whiteSpace=wrap;html=1;fillColor=#fff2cc;strokeColor=#d6b656;" vertex="1" parent="WIyWlLk6GJQsqaUBKTNV-1">
          <mxGeometry x="20" y="140" width="100" height="60" as="geometry" />
        </mxCell>
        <mxCell id="jKAB0NGE-xANimlFs14p-24" value="" style="edgeStyle=orthogonalEdgeStyle;rounded=0;orthogonalLoop=1;jettySize=auto;html=1;" edge="1" parent="WIyWlLk6GJQsqaUBKTNV-1" source="jKAB0NGE-xANimlFs14p-1" target="jKAB0NGE-xANimlFs14p-6">
          <mxGeometry relative="1" as="geometry" />
        </mxCell>
        <mxCell id="jKAB0NGE-xANimlFs14p-1" value="string[] input,&lt;br&gt;string[] output,&lt;br&gt;int i = 0,&lt;br&gt;int j = 0,&lt;br&gt;int n = 3" style="shape=parallelogram;perimeter=parallelogramPerimeter;whiteSpace=wrap;html=1;fixedSize=1;fillColor=#d5e8d4;strokeColor=#82b366;" vertex="1" parent="WIyWlLk6GJQsqaUBKTNV-1">
          <mxGeometry x="160" y="120" width="170" height="100" as="geometry" />
        </mxCell>
        <mxCell id="jKAB0NGE-xANimlFs14p-2" value="" style="edgeStyle=orthogonalEdgeStyle;rounded=0;orthogonalLoop=1;jettySize=auto;html=1;" edge="1" parent="WIyWlLk6GJQsqaUBKTNV-1" source="jKAB0NGE-xANimlFs14p-6" target="jKAB0NGE-xANimlFs14p-8">
          <mxGeometry relative="1" as="geometry" />
        </mxCell>
        <mxCell id="jKAB0NGE-xANimlFs14p-3" value="NO" style="edgeLabel;html=1;align=center;verticalAlign=middle;resizable=0;points=[];" vertex="1" connectable="0" parent="jKAB0NGE-xANimlFs14p-2">
          <mxGeometry x="-0.3268" relative="1" as="geometry">
            <mxPoint x="14" y="-15" as="offset" />
          </mxGeometry>
        </mxCell>
        <mxCell id="jKAB0NGE-xANimlFs14p-4" value="" style="edgeStyle=orthogonalEdgeStyle;rounded=0;orthogonalLoop=1;jettySize=auto;html=1;" edge="1" parent="WIyWlLk6GJQsqaUBKTNV-1" source="jKAB0NGE-xANimlFs14p-6" target="jKAB0NGE-xANimlFs14p-16">
          <mxGeometry relative="1" as="geometry" />
        </mxCell>
        <mxCell id="jKAB0NGE-xANimlFs14p-5" value="YES" style="edgeLabel;html=1;align=center;verticalAlign=middle;resizable=0;points=[];" vertex="1" connectable="0" parent="jKAB0NGE-xANimlFs14p-4">
          <mxGeometry x="-0.2" y="1" relative="1" as="geometry">
            <mxPoint x="-16" as="offset" />
          </mxGeometry>
        </mxCell>
        <mxCell id="jKAB0NGE-xANimlFs14p-6" value="i &amp;lt; &amp;nbsp;input.Length" style="rhombus;whiteSpace=wrap;html=1;fillColor=#e1d5e7;strokeColor=#9673a6;" vertex="1" parent="WIyWlLk6GJQsqaUBKTNV-1">
          <mxGeometry x="380" y="110" width="170" height="120" as="geometry" />
        </mxCell>
        <mxCell id="jKAB0NGE-xANimlFs14p-7" value="" style="edgeStyle=orthogonalEdgeStyle;rounded=0;orthogonalLoop=1;jettySize=auto;html=1;" edge="1" parent="WIyWlLk6GJQsqaUBKTNV-1" source="jKAB0NGE-xANimlFs14p-8" target="jKAB0NGE-xANimlFs14p-9">
          <mxGeometry relative="1" as="geometry" />
        </mxCell>
        <mxCell id="jKAB0NGE-xANimlFs14p-8" value="output" style="shape=parallelogram;perimeter=parallelogramPerimeter;whiteSpace=wrap;html=1;fixedSize=1;fillColor=#d5e8d4;strokeColor=#82b366;" vertex="1" parent="WIyWlLk6GJQsqaUBKTNV-1">
          <mxGeometry x="610" y="140" width="120" height="60" as="geometry" />
        </mxCell>
        <mxCell id="jKAB0NGE-xANimlFs14p-9" value="&lt;b&gt;End&lt;/b&gt;" style="rounded=1;whiteSpace=wrap;html=1;fillColor=#fff2cc;strokeColor=#d6b656;" vertex="1" parent="WIyWlLk6GJQsqaUBKTNV-1">
          <mxGeometry x="610" y="250" width="120" height="60" as="geometry" />
        </mxCell>
        <mxCell id="jKAB0NGE-xANimlFs14p-12" value="" style="edgeStyle=orthogonalEdgeStyle;rounded=0;orthogonalLoop=1;jettySize=auto;html=1;" edge="1" parent="WIyWlLk6GJQsqaUBKTNV-1" source="jKAB0NGE-xANimlFs14p-16" target="jKAB0NGE-xANimlFs14p-17">
          <mxGeometry relative="1" as="geometry" />
        </mxCell>
        <mxCell id="jKAB0NGE-xANimlFs14p-27" value="" style="edgeStyle=orthogonalEdgeStyle;rounded=0;orthogonalLoop=1;jettySize=auto;html=1;" edge="1" parent="WIyWlLk6GJQsqaUBKTNV-1" source="jKAB0NGE-xANimlFs14p-16" target="jKAB0NGE-xANimlFs14p-18">
          <mxGeometry relative="1" as="geometry" />
        </mxCell>
        <mxCell id="jKAB0NGE-xANimlFs14p-16" value="input[i].Length &amp;lt;= n" style="rhombus;whiteSpace=wrap;html=1;fillColor=#e1d5e7;strokeColor=#9673a6;" vertex="1" parent="WIyWlLk6GJQsqaUBKTNV-1">
          <mxGeometry x="357.5" y="310" width="215" height="120" as="geometry" />
        </mxCell>
        <mxCell id="jKAB0NGE-xANimlFs14p-17" value="output[j] = input[i]&amp;nbsp;" style="whiteSpace=wrap;html=1;fillColor=#ffe6cc;strokeColor=#d79b00;" vertex="1" parent="WIyWlLk6GJQsqaUBKTNV-1">
          <mxGeometry x="405" y="525" width="120" height="60" as="geometry" />
        </mxCell>
        <mxCell id="jKAB0NGE-xANimlFs14p-18" value="i++" style="whiteSpace=wrap;html=1;fillColor=#ffe6cc;strokeColor=#d79b00;" vertex="1" parent="WIyWlLk6GJQsqaUBKTNV-1">
          <mxGeometry x="217.5" y="337.5" width="90" height="65" as="geometry" />
        </mxCell>
        <mxCell id="jKAB0NGE-xANimlFs14p-26" value="" style="edgeStyle=orthogonalEdgeStyle;rounded=0;orthogonalLoop=1;jettySize=auto;html=1;" edge="1" parent="WIyWlLk6GJQsqaUBKTNV-1" source="jKAB0NGE-xANimlFs14p-20" target="jKAB0NGE-xANimlFs14p-18">
          <mxGeometry relative="1" as="geometry" />
        </mxCell>
        <mxCell id="jKAB0NGE-xANimlFs14p-20" value="j++" style="rounded=0;whiteSpace=wrap;html=1;fillColor=#ffe6cc;strokeColor=#d79b00;" vertex="1" parent="WIyWlLk6GJQsqaUBKTNV-1">
          <mxGeometry x="220" y="525" width="85" height="60" as="geometry" />
        </mxCell>
        <mxCell id="jKAB0NGE-xANimlFs14p-21" value="" style="endArrow=classic;html=1;rounded=0;exitX=0;exitY=0.5;exitDx=0;exitDy=0;entryX=1;entryY=0.5;entryDx=0;entryDy=0;" edge="1" parent="WIyWlLk6GJQsqaUBKTNV-1" source="jKAB0NGE-xANimlFs14p-17" target="jKAB0NGE-xANimlFs14p-20">
          <mxGeometry width="50" height="50" relative="1" as="geometry">
            <mxPoint x="420" y="420" as="sourcePoint" />
            <mxPoint x="470" y="370" as="targetPoint" />
          </mxGeometry>
        </mxCell>
        <mxCell id="jKAB0NGE-xANimlFs14p-25" value="YES" style="edgeLabel;html=1;align=center;verticalAlign=middle;resizable=0;points=[];" vertex="1" connectable="0" parent="WIyWlLk6GJQsqaUBKTNV-1">
          <mxGeometry x="450" y="470" as="geometry" />
        </mxCell>
        <mxCell id="jKAB0NGE-xANimlFs14p-28" value="NO" style="edgeLabel;html=1;align=center;verticalAlign=middle;resizable=0;points=[];" vertex="1" connectable="0" parent="WIyWlLk6GJQsqaUBKTNV-1">
          <mxGeometry x="357.5" y="240" as="geometry">
            <mxPoint x="-25" y="115" as="offset" />
          </mxGeometry>
        </mxCell>
        <mxCell id="jKAB0NGE-xANimlFs14p-30" value="" style="endArrow=classic;html=1;rounded=0;" edge="1" parent="WIyWlLk6GJQsqaUBKTNV-1" target="jKAB0NGE-xANimlFs14p-6">
          <mxGeometry width="50" height="50" relative="1" as="geometry">
            <mxPoint x="260" y="337.5" as="sourcePoint" />
            <mxPoint x="310" y="287.5" as="targetPoint" />
          </mxGeometry>
        </mxCell>
      </root>
    </mxGraphModel>
  </diagram>
</mxfile>
